<svg class="card-2__background-3" width="86" height="160" viewBox="0 0 86 160" fill="none" xmlns="http://www.w3.org/2000/svg">
                            <path fill-rule="evenodd" clip-rule="evenodd" d="M74.688 29.6199C80.1081 28.2443 85.6028 31.5806 86.8826 37.024L107.549 124.931C108.63 129.527 106.348 134.253 102.077 136.265L57.2931 157.366C55.5868 158.169 53.6879 158.474 51.8157 158.245L30.0551 155.581C25.8635 155.068 22.4461 151.977 21.516 147.858L1.29089 58.2918C0.0970918 53.0052 3.33207 47.7297 8.58532 46.3965L15.8559 44.5512L32.5661 40.3103L46.9554 36.6583L61.3447 33.0064L74.688 29.6199Z" fill="#A64CED"/>
                            <path d="M32.5661 40.3103C30.4391 31.9294 28.97 14.4608 40.1101 11.6335C51.2502 8.8062 58.9082 24.704 61.3447 33.0064M32.5661 40.3103L46.9554 36.6583M32.5661 40.3103L15.8559 44.5512M61.3447 33.0064L74.688 29.6199C80.1081 28.2443 85.6028 31.5806 86.8826 37.024L107.549 124.931C108.63 129.527 106.348 134.253 102.077 136.265L57.2931 157.366C55.5868 158.169 53.6879 158.474 51.8157 158.245L30.0551 155.581C25.8635 155.068 22.4461 151.977 21.516 147.858L1.29089 58.2918C0.0970918 53.0052 3.33208 47.7297 8.58532 46.3965L15.8559 44.5512M61.3447 33.0064L46.9554 36.6583M46.9554 36.6583C42.9857 23.6832 31.9216 -1.50184 19.4224 1.55909C6.92315 4.62003 11.8367 31.4959 15.8559 44.5512" stroke="#A64CED" stroke-width="2" stroke-linecap="round" stroke-linejoin="round"/>
                        </svg>